<mxfile host="65bd71144e">
    <diagram name="Page-1" id="5vC0L8ggtCbm_slnrBvZ">
        <mxGraphModel dx="813" dy="477" grid="1" gridSize="10" guides="1" tooltips="1" connect="1" arrows="1" fold="1" page="1" pageScale="1" pageWidth="850" pageHeight="1100" math="0" shadow="0">
            <root>
                <mxCell id="0"/>
                <mxCell id="1" parent="0"/>
                <mxCell id="BExgWMv-XZB-qGDr2Fs6-1" value="users" style="shape=table;startSize=30;container=1;collapsible=0;childLayout=tableLayout;strokeColor=default;fontSize=16;" parent="1" vertex="1">
                    <mxGeometry x="60" y="90" width="400" height="536" as="geometry"/>
                </mxCell>
                <mxCell id="BExgWMv-XZB-qGDr2Fs6-2" value="" style="shape=tableRow;horizontal=0;startSize=0;swimlaneHead=0;swimlaneBody=0;strokeColor=inherit;top=0;left=0;bottom=0;right=0;collapsible=0;dropTarget=0;fillColor=none;points=[[0,0.5],[1,0.5]];portConstraint=eastwest;fontSize=16;" parent="BExgWMv-XZB-qGDr2Fs6-1" vertex="1">
                    <mxGeometry y="30" width="400" height="56" as="geometry"/>
                </mxCell>
                <mxCell id="BExgWMv-XZB-qGDr2Fs6-3" value="culumn" style="shape=partialRectangle;html=1;whiteSpace=wrap;connectable=0;strokeColor=#030202;overflow=hidden;fillColor=#FF0810;top=0;left=0;bottom=0;right=0;pointerEvents=1;fontSize=16;" parent="BExgWMv-XZB-qGDr2Fs6-2" vertex="1">
                    <mxGeometry width="137" height="56" as="geometry">
                        <mxRectangle width="137" height="56" as="alternateBounds"/>
                    </mxGeometry>
                </mxCell>
                <mxCell id="BExgWMv-XZB-qGDr2Fs6-4" value="type" style="shape=partialRectangle;html=1;whiteSpace=wrap;connectable=0;strokeColor=#030202;overflow=hidden;fillColor=#FF0810;top=0;left=0;bottom=0;right=0;pointerEvents=1;fontSize=16;" parent="BExgWMv-XZB-qGDr2Fs6-2" vertex="1">
                    <mxGeometry x="137" width="135" height="56" as="geometry">
                        <mxRectangle width="135" height="56" as="alternateBounds"/>
                    </mxGeometry>
                </mxCell>
                <mxCell id="BExgWMv-XZB-qGDr2Fs6-5" value="required" style="shape=partialRectangle;html=1;whiteSpace=wrap;connectable=0;strokeColor=#030202;overflow=hidden;fillColor=#FF0810;top=0;left=0;bottom=0;right=0;pointerEvents=1;fontSize=16;" parent="BExgWMv-XZB-qGDr2Fs6-2" vertex="1">
                    <mxGeometry x="272" width="128" height="56" as="geometry">
                        <mxRectangle width="128" height="56" as="alternateBounds"/>
                    </mxGeometry>
                </mxCell>
                <mxCell id="BExgWMv-XZB-qGDr2Fs6-6" value="" style="shape=tableRow;horizontal=0;startSize=0;swimlaneHead=0;swimlaneBody=0;strokeColor=inherit;top=0;left=0;bottom=0;right=0;collapsible=0;dropTarget=0;fillColor=none;points=[[0,0.5],[1,0.5]];portConstraint=eastwest;fontSize=16;" parent="BExgWMv-XZB-qGDr2Fs6-1" vertex="1">
                    <mxGeometry y="86" width="400" height="58" as="geometry"/>
                </mxCell>
                <mxCell id="BExgWMv-XZB-qGDr2Fs6-7" value="user_id" style="shape=partialRectangle;html=1;whiteSpace=wrap;connectable=0;strokeColor=inherit;overflow=hidden;fillColor=none;top=0;left=0;bottom=0;right=0;pointerEvents=1;fontSize=16;" parent="BExgWMv-XZB-qGDr2Fs6-6" vertex="1">
                    <mxGeometry width="137" height="58" as="geometry">
                        <mxRectangle width="137" height="58" as="alternateBounds"/>
                    </mxGeometry>
                </mxCell>
                <mxCell id="BExgWMv-XZB-qGDr2Fs6-8" value="" style="shape=partialRectangle;html=1;whiteSpace=wrap;connectable=0;strokeColor=inherit;overflow=hidden;fillColor=none;top=0;left=0;bottom=0;right=0;pointerEvents=1;fontSize=16;" parent="BExgWMv-XZB-qGDr2Fs6-6" vertex="1">
                    <mxGeometry x="137" width="135" height="58" as="geometry">
                        <mxRectangle width="135" height="58" as="alternateBounds"/>
                    </mxGeometry>
                </mxCell>
                <mxCell id="BExgWMv-XZB-qGDr2Fs6-9" value="t" style="shape=partialRectangle;html=1;whiteSpace=wrap;connectable=0;strokeColor=inherit;overflow=hidden;fillColor=none;top=0;left=0;bottom=0;right=0;pointerEvents=1;fontSize=16;" parent="BExgWMv-XZB-qGDr2Fs6-6" vertex="1">
                    <mxGeometry x="272" width="128" height="58" as="geometry">
                        <mxRectangle width="128" height="58" as="alternateBounds"/>
                    </mxGeometry>
                </mxCell>
                <mxCell id="BExgWMv-XZB-qGDr2Fs6-10" value="" style="shape=tableRow;horizontal=0;startSize=0;swimlaneHead=0;swimlaneBody=0;strokeColor=inherit;top=0;left=0;bottom=0;right=0;collapsible=0;dropTarget=0;fillColor=none;points=[[0,0.5],[1,0.5]];portConstraint=eastwest;fontSize=16;" parent="BExgWMv-XZB-qGDr2Fs6-1" vertex="1">
                    <mxGeometry y="144" width="400" height="56" as="geometry"/>
                </mxCell>
                <mxCell id="BExgWMv-XZB-qGDr2Fs6-11" value="first_name" style="shape=partialRectangle;html=1;whiteSpace=wrap;connectable=0;strokeColor=inherit;overflow=hidden;fillColor=none;top=0;left=0;bottom=0;right=0;pointerEvents=1;fontSize=16;" parent="BExgWMv-XZB-qGDr2Fs6-10" vertex="1">
                    <mxGeometry width="137" height="56" as="geometry">
                        <mxRectangle width="137" height="56" as="alternateBounds"/>
                    </mxGeometry>
                </mxCell>
                <mxCell id="BExgWMv-XZB-qGDr2Fs6-12" value="varchar(50)" style="shape=partialRectangle;html=1;whiteSpace=wrap;connectable=0;strokeColor=inherit;overflow=hidden;fillColor=none;top=0;left=0;bottom=0;right=0;pointerEvents=1;fontSize=16;" parent="BExgWMv-XZB-qGDr2Fs6-10" vertex="1">
                    <mxGeometry x="137" width="135" height="56" as="geometry">
                        <mxRectangle width="135" height="56" as="alternateBounds"/>
                    </mxGeometry>
                </mxCell>
                <mxCell id="BExgWMv-XZB-qGDr2Fs6-13" value="t" style="shape=partialRectangle;html=1;whiteSpace=wrap;connectable=0;strokeColor=inherit;overflow=hidden;fillColor=none;top=0;left=0;bottom=0;right=0;pointerEvents=1;fontSize=16;" parent="BExgWMv-XZB-qGDr2Fs6-10" vertex="1">
                    <mxGeometry x="272" width="128" height="56" as="geometry">
                        <mxRectangle width="128" height="56" as="alternateBounds"/>
                    </mxGeometry>
                </mxCell>
                <mxCell id="BExgWMv-XZB-qGDr2Fs6-54" style="shape=tableRow;horizontal=0;startSize=0;swimlaneHead=0;swimlaneBody=0;strokeColor=inherit;top=0;left=0;bottom=0;right=0;collapsible=0;dropTarget=0;fillColor=none;points=[[0,0.5],[1,0.5]];portConstraint=eastwest;fontSize=16;" parent="BExgWMv-XZB-qGDr2Fs6-1" vertex="1">
                    <mxGeometry y="200" width="400" height="56" as="geometry"/>
                </mxCell>
                <mxCell id="BExgWMv-XZB-qGDr2Fs6-55" value="last_name" style="shape=partialRectangle;html=1;whiteSpace=wrap;connectable=0;strokeColor=inherit;overflow=hidden;fillColor=none;top=0;left=0;bottom=0;right=0;pointerEvents=1;fontSize=16;" parent="BExgWMv-XZB-qGDr2Fs6-54" vertex="1">
                    <mxGeometry width="137" height="56" as="geometry">
                        <mxRectangle width="137" height="56" as="alternateBounds"/>
                    </mxGeometry>
                </mxCell>
                <mxCell id="BExgWMv-XZB-qGDr2Fs6-56" value="varchar(50)" style="shape=partialRectangle;html=1;whiteSpace=wrap;connectable=0;strokeColor=inherit;overflow=hidden;fillColor=none;top=0;left=0;bottom=0;right=0;pointerEvents=1;fontSize=16;" parent="BExgWMv-XZB-qGDr2Fs6-54" vertex="1">
                    <mxGeometry x="137" width="135" height="56" as="geometry">
                        <mxRectangle width="135" height="56" as="alternateBounds"/>
                    </mxGeometry>
                </mxCell>
                <mxCell id="BExgWMv-XZB-qGDr2Fs6-57" value="t" style="shape=partialRectangle;html=1;whiteSpace=wrap;connectable=0;strokeColor=inherit;overflow=hidden;fillColor=none;top=0;left=0;bottom=0;right=0;pointerEvents=1;fontSize=16;" parent="BExgWMv-XZB-qGDr2Fs6-54" vertex="1">
                    <mxGeometry x="272" width="128" height="56" as="geometry">
                        <mxRectangle width="128" height="56" as="alternateBounds"/>
                    </mxGeometry>
                </mxCell>
                <mxCell id="BExgWMv-XZB-qGDr2Fs6-50" style="shape=tableRow;horizontal=0;startSize=0;swimlaneHead=0;swimlaneBody=0;strokeColor=inherit;top=0;left=0;bottom=0;right=0;collapsible=0;dropTarget=0;fillColor=none;points=[[0,0.5],[1,0.5]];portConstraint=eastwest;fontSize=16;" parent="BExgWMv-XZB-qGDr2Fs6-1" vertex="1">
                    <mxGeometry y="256" width="400" height="56" as="geometry"/>
                </mxCell>
                <mxCell id="BExgWMv-XZB-qGDr2Fs6-51" value="username" style="shape=partialRectangle;html=1;whiteSpace=wrap;connectable=0;strokeColor=inherit;overflow=hidden;fillColor=none;top=0;left=0;bottom=0;right=0;pointerEvents=1;fontSize=16;" parent="BExgWMv-XZB-qGDr2Fs6-50" vertex="1">
                    <mxGeometry width="137" height="56" as="geometry">
                        <mxRectangle width="137" height="56" as="alternateBounds"/>
                    </mxGeometry>
                </mxCell>
                <mxCell id="BExgWMv-XZB-qGDr2Fs6-52" value="varchar(50)" style="shape=partialRectangle;html=1;whiteSpace=wrap;connectable=0;strokeColor=inherit;overflow=hidden;fillColor=none;top=0;left=0;bottom=0;right=0;pointerEvents=1;fontSize=16;" parent="BExgWMv-XZB-qGDr2Fs6-50" vertex="1">
                    <mxGeometry x="137" width="135" height="56" as="geometry">
                        <mxRectangle width="135" height="56" as="alternateBounds"/>
                    </mxGeometry>
                </mxCell>
                <mxCell id="BExgWMv-XZB-qGDr2Fs6-53" value="t" style="shape=partialRectangle;html=1;whiteSpace=wrap;connectable=0;strokeColor=inherit;overflow=hidden;fillColor=none;top=0;left=0;bottom=0;right=0;pointerEvents=1;fontSize=16;" parent="BExgWMv-XZB-qGDr2Fs6-50" vertex="1">
                    <mxGeometry x="272" width="128" height="56" as="geometry">
                        <mxRectangle width="128" height="56" as="alternateBounds"/>
                    </mxGeometry>
                </mxCell>
                <mxCell id="BExgWMv-XZB-qGDr2Fs6-46" style="shape=tableRow;horizontal=0;startSize=0;swimlaneHead=0;swimlaneBody=0;strokeColor=inherit;top=0;left=0;bottom=0;right=0;collapsible=0;dropTarget=0;fillColor=none;points=[[0,0.5],[1,0.5]];portConstraint=eastwest;fontSize=16;" parent="BExgWMv-XZB-qGDr2Fs6-1" vertex="1">
                    <mxGeometry y="312" width="400" height="56" as="geometry"/>
                </mxCell>
                <mxCell id="BExgWMv-XZB-qGDr2Fs6-47" value="password" style="shape=partialRectangle;html=1;whiteSpace=wrap;connectable=0;strokeColor=inherit;overflow=hidden;fillColor=none;top=0;left=0;bottom=0;right=0;pointerEvents=1;fontSize=16;" parent="BExgWMv-XZB-qGDr2Fs6-46" vertex="1">
                    <mxGeometry width="137" height="56" as="geometry">
                        <mxRectangle width="137" height="56" as="alternateBounds"/>
                    </mxGeometry>
                </mxCell>
                <mxCell id="BExgWMv-XZB-qGDr2Fs6-48" value="varchar(255)" style="shape=partialRectangle;html=1;whiteSpace=wrap;connectable=0;strokeColor=inherit;overflow=hidden;fillColor=none;top=0;left=0;bottom=0;right=0;pointerEvents=1;fontSize=16;" parent="BExgWMv-XZB-qGDr2Fs6-46" vertex="1">
                    <mxGeometry x="137" width="135" height="56" as="geometry">
                        <mxRectangle width="135" height="56" as="alternateBounds"/>
                    </mxGeometry>
                </mxCell>
                <mxCell id="BExgWMv-XZB-qGDr2Fs6-49" value="t" style="shape=partialRectangle;html=1;whiteSpace=wrap;connectable=0;strokeColor=inherit;overflow=hidden;fillColor=none;top=0;left=0;bottom=0;right=0;pointerEvents=1;fontSize=16;" parent="BExgWMv-XZB-qGDr2Fs6-46" vertex="1">
                    <mxGeometry x="272" width="128" height="56" as="geometry">
                        <mxRectangle width="128" height="56" as="alternateBounds"/>
                    </mxGeometry>
                </mxCell>
                <mxCell id="BExgWMv-XZB-qGDr2Fs6-58" style="shape=tableRow;horizontal=0;startSize=0;swimlaneHead=0;swimlaneBody=0;strokeColor=inherit;top=0;left=0;bottom=0;right=0;collapsible=0;dropTarget=0;fillColor=none;points=[[0,0.5],[1,0.5]];portConstraint=eastwest;fontSize=16;" parent="BExgWMv-XZB-qGDr2Fs6-1" vertex="1">
                    <mxGeometry y="368" width="400" height="56" as="geometry"/>
                </mxCell>
                <mxCell id="BExgWMv-XZB-qGDr2Fs6-59" value="email" style="shape=partialRectangle;html=1;whiteSpace=wrap;connectable=0;strokeColor=inherit;overflow=hidden;fillColor=none;top=0;left=0;bottom=0;right=0;pointerEvents=1;fontSize=16;" parent="BExgWMv-XZB-qGDr2Fs6-58" vertex="1">
                    <mxGeometry width="137" height="56" as="geometry">
                        <mxRectangle width="137" height="56" as="alternateBounds"/>
                    </mxGeometry>
                </mxCell>
                <mxCell id="BExgWMv-XZB-qGDr2Fs6-60" value="varchar(50)" style="shape=partialRectangle;html=1;whiteSpace=wrap;connectable=0;strokeColor=inherit;overflow=hidden;fillColor=none;top=0;left=0;bottom=0;right=0;pointerEvents=1;fontSize=16;" parent="BExgWMv-XZB-qGDr2Fs6-58" vertex="1">
                    <mxGeometry x="137" width="135" height="56" as="geometry">
                        <mxRectangle width="135" height="56" as="alternateBounds"/>
                    </mxGeometry>
                </mxCell>
                <mxCell id="BExgWMv-XZB-qGDr2Fs6-61" value="t" style="shape=partialRectangle;html=1;whiteSpace=wrap;connectable=0;strokeColor=inherit;overflow=hidden;fillColor=none;top=0;left=0;bottom=0;right=0;pointerEvents=1;fontSize=16;" parent="BExgWMv-XZB-qGDr2Fs6-58" vertex="1">
                    <mxGeometry x="272" width="128" height="56" as="geometry">
                        <mxRectangle width="128" height="56" as="alternateBounds"/>
                    </mxGeometry>
                </mxCell>
                <mxCell id="BExgWMv-XZB-qGDr2Fs6-160" style="shape=tableRow;horizontal=0;startSize=0;swimlaneHead=0;swimlaneBody=0;strokeColor=inherit;top=0;left=0;bottom=0;right=0;collapsible=0;dropTarget=0;fillColor=none;points=[[0,0.5],[1,0.5]];portConstraint=eastwest;fontSize=16;" parent="BExgWMv-XZB-qGDr2Fs6-1" vertex="1">
                    <mxGeometry y="424" width="400" height="56" as="geometry"/>
                </mxCell>
                <mxCell id="BExgWMv-XZB-qGDr2Fs6-161" value="img" style="shape=partialRectangle;html=1;whiteSpace=wrap;connectable=0;strokeColor=inherit;overflow=hidden;fillColor=none;top=0;left=0;bottom=0;right=0;pointerEvents=1;fontSize=16;" parent="BExgWMv-XZB-qGDr2Fs6-160" vertex="1">
                    <mxGeometry width="137" height="56" as="geometry">
                        <mxRectangle width="137" height="56" as="alternateBounds"/>
                    </mxGeometry>
                </mxCell>
                <mxCell id="BExgWMv-XZB-qGDr2Fs6-162" value="&lt;span style=&quot;color: rgb(240, 240, 240); font-family: Helvetica; font-size: 16px; font-style: normal; font-variant-ligatures: normal; font-variant-caps: normal; font-weight: 400; letter-spacing: normal; orphans: 2; text-align: center; text-indent: 0px; text-transform: none; widows: 2; word-spacing: 0px; -webkit-text-stroke-width: 0px; background-color: rgb(42, 37, 47); text-decoration-thickness: initial; text-decoration-style: initial; text-decoration-color: initial; float: none; display: inline !important;&quot;&gt;varchar(255)&lt;/span&gt;" style="shape=partialRectangle;html=1;whiteSpace=wrap;connectable=0;strokeColor=inherit;overflow=hidden;fillColor=none;top=0;left=0;bottom=0;right=0;pointerEvents=1;fontSize=16;" parent="BExgWMv-XZB-qGDr2Fs6-160" vertex="1">
                    <mxGeometry x="137" width="135" height="56" as="geometry">
                        <mxRectangle width="135" height="56" as="alternateBounds"/>
                    </mxGeometry>
                </mxCell>
                <mxCell id="BExgWMv-XZB-qGDr2Fs6-163" value="f" style="shape=partialRectangle;html=1;whiteSpace=wrap;connectable=0;strokeColor=inherit;overflow=hidden;fillColor=none;top=0;left=0;bottom=0;right=0;pointerEvents=1;fontSize=16;" parent="BExgWMv-XZB-qGDr2Fs6-160" vertex="1">
                    <mxGeometry x="272" width="128" height="56" as="geometry">
                        <mxRectangle width="128" height="56" as="alternateBounds"/>
                    </mxGeometry>
                </mxCell>
                <mxCell id="2" style="shape=tableRow;horizontal=0;startSize=0;swimlaneHead=0;swimlaneBody=0;strokeColor=inherit;top=0;left=0;bottom=0;right=0;collapsible=0;dropTarget=0;fillColor=none;points=[[0,0.5],[1,0.5]];portConstraint=eastwest;fontSize=16;" vertex="1" parent="BExgWMv-XZB-qGDr2Fs6-1">
                    <mxGeometry y="480" width="400" height="56" as="geometry"/>
                </mxCell>
                <mxCell id="3" style="shape=partialRectangle;html=1;whiteSpace=wrap;connectable=0;strokeColor=inherit;overflow=hidden;fillColor=none;top=0;left=0;bottom=0;right=0;pointerEvents=1;fontSize=16;" vertex="1" parent="2">
                    <mxGeometry width="137" height="56" as="geometry">
                        <mxRectangle width="137" height="56" as="alternateBounds"/>
                    </mxGeometry>
                </mxCell>
                <mxCell id="4" style="shape=partialRectangle;html=1;whiteSpace=wrap;connectable=0;strokeColor=inherit;overflow=hidden;fillColor=none;top=0;left=0;bottom=0;right=0;pointerEvents=1;fontSize=16;" vertex="1" parent="2">
                    <mxGeometry x="137" width="135" height="56" as="geometry">
                        <mxRectangle width="135" height="56" as="alternateBounds"/>
                    </mxGeometry>
                </mxCell>
                <mxCell id="5" style="shape=partialRectangle;html=1;whiteSpace=wrap;connectable=0;strokeColor=inherit;overflow=hidden;fillColor=none;top=0;left=0;bottom=0;right=0;pointerEvents=1;fontSize=16;" vertex="1" parent="2">
                    <mxGeometry x="272" width="128" height="56" as="geometry">
                        <mxRectangle width="128" height="56" as="alternateBounds"/>
                    </mxGeometry>
                </mxCell>
                <mxCell id="BExgWMv-XZB-qGDr2Fs6-15" value="" style="shape=tableRow;horizontal=0;startSize=0;swimlaneHead=0;swimlaneBody=0;strokeColor=inherit;top=0;left=0;bottom=0;right=0;collapsible=0;dropTarget=0;fillColor=none;points=[[0,0.5],[1,0.5]];portConstraint=eastwest;fontSize=16;" parent="1" vertex="1">
                    <mxGeometry x="90" y="310" width="400" height="46" as="geometry"/>
                </mxCell>
                <mxCell id="BExgWMv-XZB-qGDr2Fs6-147" style="edgeStyle=orthogonalEdgeStyle;rounded=0;orthogonalLoop=1;jettySize=auto;html=1;entryX=1;entryY=0.5;entryDx=0;entryDy=0;" parent="1" source="BExgWMv-XZB-qGDr2Fs6-123" target="BExgWMv-XZB-qGDr2Fs6-6" edge="1">
                    <mxGeometry relative="1" as="geometry"/>
                </mxCell>
                <mxCell id="BExgWMv-XZB-qGDr2Fs6-123" value="tasks" style="shape=table;startSize=30;container=1;collapsible=0;childLayout=tableLayout;strokeColor=default;fontSize=16;" parent="1" vertex="1">
                    <mxGeometry x="500" y="120" width="340" height="532" as="geometry"/>
                </mxCell>
                <mxCell id="BExgWMv-XZB-qGDr2Fs6-124" value="" style="shape=tableRow;horizontal=0;startSize=0;swimlaneHead=0;swimlaneBody=0;strokeColor=inherit;top=0;left=0;bottom=0;right=0;collapsible=0;dropTarget=0;fillColor=none;points=[[0,0.5],[1,0.5]];portConstraint=eastwest;fontSize=16;" parent="BExgWMv-XZB-qGDr2Fs6-123" vertex="1">
                    <mxGeometry y="30" width="340" height="55" as="geometry"/>
                </mxCell>
                <mxCell id="BExgWMv-XZB-qGDr2Fs6-125" value="culumn" style="shape=partialRectangle;html=1;whiteSpace=wrap;connectable=0;strokeColor=inherit;overflow=hidden;fillColor=none;top=0;left=0;bottom=0;right=0;pointerEvents=1;fontSize=16;" parent="BExgWMv-XZB-qGDr2Fs6-124" vertex="1">
                    <mxGeometry width="114" height="55" as="geometry">
                        <mxRectangle width="114" height="55" as="alternateBounds"/>
                    </mxGeometry>
                </mxCell>
                <mxCell id="BExgWMv-XZB-qGDr2Fs6-126" value="type" style="shape=partialRectangle;html=1;whiteSpace=wrap;connectable=0;strokeColor=inherit;overflow=hidden;fillColor=none;top=0;left=0;bottom=0;right=0;pointerEvents=1;fontSize=16;" parent="BExgWMv-XZB-qGDr2Fs6-124" vertex="1">
                    <mxGeometry x="114" width="112" height="55" as="geometry">
                        <mxRectangle width="112" height="55" as="alternateBounds"/>
                    </mxGeometry>
                </mxCell>
                <mxCell id="BExgWMv-XZB-qGDr2Fs6-127" value="required" style="shape=partialRectangle;html=1;whiteSpace=wrap;connectable=0;strokeColor=inherit;overflow=hidden;fillColor=none;top=0;left=0;bottom=0;right=0;pointerEvents=1;fontSize=16;" parent="BExgWMv-XZB-qGDr2Fs6-124" vertex="1">
                    <mxGeometry x="226" width="114" height="55" as="geometry">
                        <mxRectangle width="114" height="55" as="alternateBounds"/>
                    </mxGeometry>
                </mxCell>
                <mxCell id="BExgWMv-XZB-qGDr2Fs6-128" value="" style="shape=tableRow;horizontal=0;startSize=0;swimlaneHead=0;swimlaneBody=0;strokeColor=inherit;top=0;left=0;bottom=0;right=0;collapsible=0;dropTarget=0;fillColor=none;points=[[0,0.5],[1,0.5]];portConstraint=eastwest;fontSize=16;" parent="BExgWMv-XZB-qGDr2Fs6-123" vertex="1">
                    <mxGeometry y="85" width="340" height="57" as="geometry"/>
                </mxCell>
                <mxCell id="BExgWMv-XZB-qGDr2Fs6-129" value="task_id" style="shape=partialRectangle;html=1;whiteSpace=wrap;connectable=0;strokeColor=inherit;overflow=hidden;fillColor=none;top=0;left=0;bottom=0;right=0;pointerEvents=1;fontSize=16;" parent="BExgWMv-XZB-qGDr2Fs6-128" vertex="1">
                    <mxGeometry width="114" height="57" as="geometry">
                        <mxRectangle width="114" height="57" as="alternateBounds"/>
                    </mxGeometry>
                </mxCell>
                <mxCell id="BExgWMv-XZB-qGDr2Fs6-130" value="" style="shape=partialRectangle;html=1;whiteSpace=wrap;connectable=0;strokeColor=inherit;overflow=hidden;fillColor=none;top=0;left=0;bottom=0;right=0;pointerEvents=1;fontSize=16;" parent="BExgWMv-XZB-qGDr2Fs6-128" vertex="1">
                    <mxGeometry x="114" width="112" height="57" as="geometry">
                        <mxRectangle width="112" height="57" as="alternateBounds"/>
                    </mxGeometry>
                </mxCell>
                <mxCell id="BExgWMv-XZB-qGDr2Fs6-131" value="t" style="shape=partialRectangle;html=1;whiteSpace=wrap;connectable=0;strokeColor=inherit;overflow=hidden;fillColor=none;top=0;left=0;bottom=0;right=0;pointerEvents=1;fontSize=16;" parent="BExgWMv-XZB-qGDr2Fs6-128" vertex="1">
                    <mxGeometry x="226" width="114" height="57" as="geometry">
                        <mxRectangle width="114" height="57" as="alternateBounds"/>
                    </mxGeometry>
                </mxCell>
                <mxCell id="BExgWMv-XZB-qGDr2Fs6-164" style="shape=tableRow;horizontal=0;startSize=0;swimlaneHead=0;swimlaneBody=0;strokeColor=inherit;top=0;left=0;bottom=0;right=0;collapsible=0;dropTarget=0;fillColor=none;points=[[0,0.5],[1,0.5]];portConstraint=eastwest;fontSize=16;" parent="BExgWMv-XZB-qGDr2Fs6-123" vertex="1">
                    <mxGeometry y="142" width="340" height="57" as="geometry"/>
                </mxCell>
                <mxCell id="BExgWMv-XZB-qGDr2Fs6-165" value="title" style="shape=partialRectangle;html=1;whiteSpace=wrap;connectable=0;strokeColor=inherit;overflow=hidden;fillColor=none;top=0;left=0;bottom=0;right=0;pointerEvents=1;fontSize=16;" parent="BExgWMv-XZB-qGDr2Fs6-164" vertex="1">
                    <mxGeometry width="114" height="57" as="geometry">
                        <mxRectangle width="114" height="57" as="alternateBounds"/>
                    </mxGeometry>
                </mxCell>
                <mxCell id="BExgWMv-XZB-qGDr2Fs6-166" value="varchar(100)" style="shape=partialRectangle;html=1;whiteSpace=wrap;connectable=0;strokeColor=inherit;overflow=hidden;fillColor=none;top=0;left=0;bottom=0;right=0;pointerEvents=1;fontSize=16;" parent="BExgWMv-XZB-qGDr2Fs6-164" vertex="1">
                    <mxGeometry x="114" width="112" height="57" as="geometry">
                        <mxRectangle width="112" height="57" as="alternateBounds"/>
                    </mxGeometry>
                </mxCell>
                <mxCell id="BExgWMv-XZB-qGDr2Fs6-167" value="f" style="shape=partialRectangle;html=1;whiteSpace=wrap;connectable=0;strokeColor=inherit;overflow=hidden;fillColor=none;top=0;left=0;bottom=0;right=0;pointerEvents=1;fontSize=16;" parent="BExgWMv-XZB-qGDr2Fs6-164" vertex="1">
                    <mxGeometry x="226" width="114" height="57" as="geometry">
                        <mxRectangle width="114" height="57" as="alternateBounds"/>
                    </mxGeometry>
                </mxCell>
                <mxCell id="BExgWMv-XZB-qGDr2Fs6-143" style="shape=tableRow;horizontal=0;startSize=0;swimlaneHead=0;swimlaneBody=0;strokeColor=inherit;top=0;left=0;bottom=0;right=0;collapsible=0;dropTarget=0;fillColor=none;points=[[0,0.5],[1,0.5]];portConstraint=eastwest;fontSize=16;" parent="BExgWMv-XZB-qGDr2Fs6-123" vertex="1">
                    <mxGeometry y="199" width="340" height="56" as="geometry"/>
                </mxCell>
                <mxCell id="BExgWMv-XZB-qGDr2Fs6-144" value="user_id" style="shape=partialRectangle;html=1;whiteSpace=wrap;connectable=0;strokeColor=inherit;overflow=hidden;fillColor=none;top=0;left=0;bottom=0;right=0;pointerEvents=1;fontSize=16;" parent="BExgWMv-XZB-qGDr2Fs6-143" vertex="1">
                    <mxGeometry width="114" height="56" as="geometry">
                        <mxRectangle width="114" height="56" as="alternateBounds"/>
                    </mxGeometry>
                </mxCell>
                <mxCell id="BExgWMv-XZB-qGDr2Fs6-145" value="forgein key" style="shape=partialRectangle;html=1;whiteSpace=wrap;connectable=0;strokeColor=inherit;overflow=hidden;fillColor=none;top=0;left=0;bottom=0;right=0;pointerEvents=1;fontSize=16;" parent="BExgWMv-XZB-qGDr2Fs6-143" vertex="1">
                    <mxGeometry x="114" width="112" height="56" as="geometry">
                        <mxRectangle width="112" height="56" as="alternateBounds"/>
                    </mxGeometry>
                </mxCell>
                <mxCell id="BExgWMv-XZB-qGDr2Fs6-146" value="t" style="shape=partialRectangle;html=1;whiteSpace=wrap;connectable=0;strokeColor=inherit;overflow=hidden;fillColor=none;top=0;left=0;bottom=0;right=0;pointerEvents=1;fontSize=16;" parent="BExgWMv-XZB-qGDr2Fs6-143" vertex="1">
                    <mxGeometry x="226" width="114" height="56" as="geometry">
                        <mxRectangle width="114" height="56" as="alternateBounds"/>
                    </mxGeometry>
                </mxCell>
                <mxCell id="BExgWMv-XZB-qGDr2Fs6-139" style="shape=tableRow;horizontal=0;startSize=0;swimlaneHead=0;swimlaneBody=0;strokeColor=inherit;top=0;left=0;bottom=0;right=0;collapsible=0;dropTarget=0;fillColor=none;points=[[0,0.5],[1,0.5]];portConstraint=eastwest;fontSize=16;" parent="BExgWMv-XZB-qGDr2Fs6-123" vertex="1">
                    <mxGeometry y="255" width="340" height="57" as="geometry"/>
                </mxCell>
                <mxCell id="BExgWMv-XZB-qGDr2Fs6-140" value="content" style="shape=partialRectangle;html=1;whiteSpace=wrap;connectable=0;strokeColor=inherit;overflow=hidden;fillColor=none;top=0;left=0;bottom=0;right=0;pointerEvents=1;fontSize=16;" parent="BExgWMv-XZB-qGDr2Fs6-139" vertex="1">
                    <mxGeometry width="114" height="57" as="geometry">
                        <mxRectangle width="114" height="57" as="alternateBounds"/>
                    </mxGeometry>
                </mxCell>
                <mxCell id="BExgWMv-XZB-qGDr2Fs6-141" value="text" style="shape=partialRectangle;html=1;whiteSpace=wrap;connectable=0;strokeColor=inherit;overflow=hidden;fillColor=none;top=0;left=0;bottom=0;right=0;pointerEvents=1;fontSize=16;" parent="BExgWMv-XZB-qGDr2Fs6-139" vertex="1">
                    <mxGeometry x="114" width="112" height="57" as="geometry">
                        <mxRectangle width="112" height="57" as="alternateBounds"/>
                    </mxGeometry>
                </mxCell>
                <mxCell id="BExgWMv-XZB-qGDr2Fs6-142" value="t" style="shape=partialRectangle;html=1;whiteSpace=wrap;connectable=0;strokeColor=inherit;overflow=hidden;fillColor=none;top=0;left=0;bottom=0;right=0;pointerEvents=1;fontSize=16;" parent="BExgWMv-XZB-qGDr2Fs6-139" vertex="1">
                    <mxGeometry x="226" width="114" height="57" as="geometry">
                        <mxRectangle width="114" height="57" as="alternateBounds"/>
                    </mxGeometry>
                </mxCell>
                <mxCell id="BExgWMv-XZB-qGDr2Fs6-132" value="" style="shape=tableRow;horizontal=0;startSize=0;swimlaneHead=0;swimlaneBody=0;strokeColor=inherit;top=0;left=0;bottom=0;right=0;collapsible=0;dropTarget=0;fillColor=none;points=[[0,0.5],[1,0.5]];portConstraint=eastwest;fontSize=16;" parent="BExgWMv-XZB-qGDr2Fs6-123" vertex="1">
                    <mxGeometry y="312" width="340" height="55" as="geometry"/>
                </mxCell>
                <mxCell id="BExgWMv-XZB-qGDr2Fs6-133" value="created_at" style="shape=partialRectangle;html=1;whiteSpace=wrap;connectable=0;strokeColor=inherit;overflow=hidden;fillColor=none;top=0;left=0;bottom=0;right=0;pointerEvents=1;fontSize=16;" parent="BExgWMv-XZB-qGDr2Fs6-132" vertex="1">
                    <mxGeometry width="114" height="55" as="geometry">
                        <mxRectangle width="114" height="55" as="alternateBounds"/>
                    </mxGeometry>
                </mxCell>
                <mxCell id="BExgWMv-XZB-qGDr2Fs6-134" value="date" style="shape=partialRectangle;html=1;whiteSpace=wrap;connectable=0;strokeColor=inherit;overflow=hidden;fillColor=none;top=0;left=0;bottom=0;right=0;pointerEvents=1;fontSize=16;" parent="BExgWMv-XZB-qGDr2Fs6-132" vertex="1">
                    <mxGeometry x="114" width="112" height="55" as="geometry">
                        <mxRectangle width="112" height="55" as="alternateBounds"/>
                    </mxGeometry>
                </mxCell>
                <mxCell id="BExgWMv-XZB-qGDr2Fs6-135" value="t" style="shape=partialRectangle;html=1;whiteSpace=wrap;connectable=0;strokeColor=inherit;overflow=hidden;fillColor=none;top=0;left=0;bottom=0;right=0;pointerEvents=1;fontSize=16;" parent="BExgWMv-XZB-qGDr2Fs6-132" vertex="1">
                    <mxGeometry x="226" width="114" height="55" as="geometry">
                        <mxRectangle width="114" height="55" as="alternateBounds"/>
                    </mxGeometry>
                </mxCell>
                <mxCell id="BExgWMv-XZB-qGDr2Fs6-168" style="shape=tableRow;horizontal=0;startSize=0;swimlaneHead=0;swimlaneBody=0;strokeColor=inherit;top=0;left=0;bottom=0;right=0;collapsible=0;dropTarget=0;fillColor=none;points=[[0,0.5],[1,0.5]];portConstraint=eastwest;fontSize=16;" parent="BExgWMv-XZB-qGDr2Fs6-123" vertex="1">
                    <mxGeometry y="367" width="340" height="55" as="geometry"/>
                </mxCell>
                <mxCell id="BExgWMv-XZB-qGDr2Fs6-169" value="due_date" style="shape=partialRectangle;html=1;whiteSpace=wrap;connectable=0;strokeColor=inherit;overflow=hidden;fillColor=none;top=0;left=0;bottom=0;right=0;pointerEvents=1;fontSize=16;" parent="BExgWMv-XZB-qGDr2Fs6-168" vertex="1">
                    <mxGeometry width="114" height="55" as="geometry">
                        <mxRectangle width="114" height="55" as="alternateBounds"/>
                    </mxGeometry>
                </mxCell>
                <mxCell id="BExgWMv-XZB-qGDr2Fs6-170" value="date" style="shape=partialRectangle;html=1;whiteSpace=wrap;connectable=0;strokeColor=inherit;overflow=hidden;fillColor=none;top=0;left=0;bottom=0;right=0;pointerEvents=1;fontSize=16;" parent="BExgWMv-XZB-qGDr2Fs6-168" vertex="1">
                    <mxGeometry x="114" width="112" height="55" as="geometry">
                        <mxRectangle width="112" height="55" as="alternateBounds"/>
                    </mxGeometry>
                </mxCell>
                <mxCell id="BExgWMv-XZB-qGDr2Fs6-171" value="f" style="shape=partialRectangle;html=1;whiteSpace=wrap;connectable=0;strokeColor=inherit;overflow=hidden;fillColor=none;top=0;left=0;bottom=0;right=0;pointerEvents=1;fontSize=16;" parent="BExgWMv-XZB-qGDr2Fs6-168" vertex="1">
                    <mxGeometry x="226" width="114" height="55" as="geometry">
                        <mxRectangle width="114" height="55" as="alternateBounds"/>
                    </mxGeometry>
                </mxCell>
                <mxCell id="BExgWMv-XZB-qGDr2Fs6-152" style="shape=tableRow;horizontal=0;startSize=0;swimlaneHead=0;swimlaneBody=0;strokeColor=inherit;top=0;left=0;bottom=0;right=0;collapsible=0;dropTarget=0;fillColor=none;points=[[0,0.5],[1,0.5]];portConstraint=eastwest;fontSize=16;" parent="BExgWMv-XZB-qGDr2Fs6-123" vertex="1">
                    <mxGeometry y="422" width="340" height="55" as="geometry"/>
                </mxCell>
                <mxCell id="BExgWMv-XZB-qGDr2Fs6-153" value="is_finished" style="shape=partialRectangle;html=1;whiteSpace=wrap;connectable=0;strokeColor=inherit;overflow=hidden;fillColor=none;top=0;left=0;bottom=0;right=0;pointerEvents=1;fontSize=16;" parent="BExgWMv-XZB-qGDr2Fs6-152" vertex="1">
                    <mxGeometry width="114" height="55" as="geometry">
                        <mxRectangle width="114" height="55" as="alternateBounds"/>
                    </mxGeometry>
                </mxCell>
                <mxCell id="BExgWMv-XZB-qGDr2Fs6-154" value="bool" style="shape=partialRectangle;html=1;whiteSpace=wrap;connectable=0;strokeColor=inherit;overflow=hidden;fillColor=none;top=0;left=0;bottom=0;right=0;pointerEvents=1;fontSize=16;" parent="BExgWMv-XZB-qGDr2Fs6-152" vertex="1">
                    <mxGeometry x="114" width="112" height="55" as="geometry">
                        <mxRectangle width="112" height="55" as="alternateBounds"/>
                    </mxGeometry>
                </mxCell>
                <mxCell id="BExgWMv-XZB-qGDr2Fs6-155" value="t" style="shape=partialRectangle;html=1;whiteSpace=wrap;connectable=0;strokeColor=inherit;overflow=hidden;fillColor=none;top=0;left=0;bottom=0;right=0;pointerEvents=1;fontSize=16;" parent="BExgWMv-XZB-qGDr2Fs6-152" vertex="1">
                    <mxGeometry x="226" width="114" height="55" as="geometry">
                        <mxRectangle width="114" height="55" as="alternateBounds"/>
                    </mxGeometry>
                </mxCell>
                <mxCell id="BExgWMv-XZB-qGDr2Fs6-156" style="shape=tableRow;horizontal=0;startSize=0;swimlaneHead=0;swimlaneBody=0;strokeColor=inherit;top=0;left=0;bottom=0;right=0;collapsible=0;dropTarget=0;fillColor=none;points=[[0,0.5],[1,0.5]];portConstraint=eastwest;fontSize=16;" parent="BExgWMv-XZB-qGDr2Fs6-123" vertex="1">
                    <mxGeometry y="477" width="340" height="55" as="geometry"/>
                </mxCell>
                <mxCell id="BExgWMv-XZB-qGDr2Fs6-157" value="finished_at" style="shape=partialRectangle;html=1;whiteSpace=wrap;connectable=0;strokeColor=inherit;overflow=hidden;fillColor=none;top=0;left=0;bottom=0;right=0;pointerEvents=1;fontSize=16;" parent="BExgWMv-XZB-qGDr2Fs6-156" vertex="1">
                    <mxGeometry width="114" height="55" as="geometry">
                        <mxRectangle width="114" height="55" as="alternateBounds"/>
                    </mxGeometry>
                </mxCell>
                <mxCell id="BExgWMv-XZB-qGDr2Fs6-158" value="date" style="shape=partialRectangle;html=1;whiteSpace=wrap;connectable=0;strokeColor=inherit;overflow=hidden;fillColor=none;top=0;left=0;bottom=0;right=0;pointerEvents=1;fontSize=16;" parent="BExgWMv-XZB-qGDr2Fs6-156" vertex="1">
                    <mxGeometry x="114" width="112" height="55" as="geometry">
                        <mxRectangle width="112" height="55" as="alternateBounds"/>
                    </mxGeometry>
                </mxCell>
                <mxCell id="BExgWMv-XZB-qGDr2Fs6-159" value="f" style="shape=partialRectangle;html=1;whiteSpace=wrap;connectable=0;strokeColor=inherit;overflow=hidden;fillColor=none;top=0;left=0;bottom=0;right=0;pointerEvents=1;fontSize=16;" parent="BExgWMv-XZB-qGDr2Fs6-156" vertex="1">
                    <mxGeometry x="226" width="114" height="55" as="geometry">
                        <mxRectangle width="114" height="55" as="alternateBounds"/>
                    </mxGeometry>
                </mxCell>
            </root>
        </mxGraphModel>
    </diagram>
</mxfile>